<svg xmlns="http://www.w3.org/2000/svg" xmlns:xlink="http://www.w3.org/1999/xlink" width="1200" height="1200" viewBox="0 0 1200 1200"><rect width="100%" height="100%" fill="#242930"></rect><g transform="translate(600 600) scale(0.69 0.69) rotate(0) translate(-600 -600)" style="fill:#57cc8a"><svg fill="#57cc8a" xmlns="http://www.w3.org/2000/svg" xmlns:xlink="http://www.w3.org/1999/xlink" version="1.1" x="0px" y="0px" viewBox="-895 477 128 128" enable-background="new -895 477 128 128" xml:space="preserve"><g><path d="M-814,535c-5,0-9,4-9,9s4,9,9,9s9-4,9-9S-809,535-814,535z M-814,549c-2.8,0-5-2.2-5-5s2.2-5,5-5s5,2.2,5,5   S-811.2,549-814,549z"></path><path d="M-818,571c-5,0-9,4-9,9s4,9,9,9s9-4,9-9S-813,571-818,571z M-818,585c-2.8,0-5-2.2-5-5s2.2-5,5-5s5,2.2,5,5   S-815.2,585-818,585z"></path><path d="M-843,561c-5,0-9,4-9,9s4,9,9,9s9-4,9-9S-838,561-843,561z M-843,575c-2.8,0-5-2.2-5-5s2.2-5,5-5s5,2.2,5,5   S-840.2,575-843,575z"></path><path d="M-789.5,509.7c-0.3-0.4-0.9-0.7-1.5-0.7h-43v-23c0-5-4-9-9-9s-9,4-9,9v23h-19.1c-0.6,0-1.1,0.2-1.5,0.7   c-0.3,0.4-0.5,1-0.4,1.6l16,92c0.2,1,1,1.7,2,1.7h48c1,0,1.8-0.7,1.9-1.7l16-92C-789,510.7-789.1,510.2-789.5,509.7z M-793.4,513   l-1.7,10H-834v-10H-793.4z M-843,481c2.8,0,5,2.2,5,5v37h-10v-37C-848,483.2-845.8,481-843,481z M-848,527h10v17c0,2.8-2.2,5-5,5   s-5-2.2-5-5V527z M-852,513v10h-14.9l-1.7-10H-852z M-808.7,601h-44.6l-12.9-74h14.2v17c0,5,4,9,9,9s9-4,9-9v-17h38.2L-808.7,601z"></path></g></svg></g></svg>